<svg xmlns="http://www.w3.org/2000/svg" width="377" height="104.5" viewBox="0 0 377 104.5">
  <g id="Groupe_7" data-name="Groupe 7" transform="translate(-54 -81.5)">
    <text id="Comptabilité_Fiscalité_et_Conseil" data-name="Comptabilité, Fiscalité et Conseil" transform="translate(54 161)" fill="#fbfbfb" font-size="21" font-family="Lato-Regular, Lato" letter-spacing="0.096em"><tspan x="0" y="21">Comptabilité, Fiscalité et Conseil</tspan></text>
    <text id="CABINET_CHERIF" data-name="CABINET CHERIF" transform="translate(199 88)" fill="#fbfbfb" font-size="27" font-family="Lato-Bold, Lato" font-weight="700"><tspan x="0" y="27">CABINET CHERIF</tspan></text>
    <text id="CONSULTING" transform="translate(199 117)" fill="#fbfbfb" font-size="30" font-family="Lato-Bold, Lato" font-weight="700" letter-spacing="0.095em"><tspan x="0" y="30">CONSULTING</tspan></text>
    <line id="Ligne_3" data-name="Ligne 3" x2="223" transform="translate(196.5 154.5)" fill="none" stroke="#46b8e6" stroke-width="3"/>
    <g id="Groupe_7-2" data-name="Groupe 7" transform="translate(-9.804 54.358)">
      <path id="Tracé_8" data-name="Tracé 8" d="M95.612,49.514,84.9,43.447,93.4,83.92l40.747,17.242" transform="translate(0 -1.02)" fill="#46b8e6"/>
      <path id="Tracé_7" data-name="Tracé 7" d="M106.539,43.752,95.875,34.743l.6,14.117,1.2,28.424,37.2,23.32" transform="translate(-0.689 -0.475)" fill="#fff"/>
      <path id="Tracé_6" data-name="Tracé 6" d="M118.423,39.5l-9.745-9.515-1.518,12.965-3.355,28.657,31.576,28.709" transform="translate(-1.186 -0.177)" fill="#46b8e6"/>
      <path id="Tracé_4" data-name="Tracé 4" d="M130.993,38.432l-8.023-11.29-13.48,38.272,26.234,34.7" transform="translate(-1.541)" fill="#fff"/>
      <path id="Tracé_5" data-name="Tracé 5" d="M141.138,40.4l-4.364-13.126L117.262,62.6l18.919,37.476Z" transform="translate(-2.028 -0.008)" fill="#46b8e6"/>
      <path id="Tracé_3" data-name="Tracé 3" d="M153.757,42.435l-2.638-14.391L124.642,60.3l12.032,39.87" transform="translate(-2.49 -0.058)" fill="#fff"/>
      <path id="Tracé_2" data-name="Tracé 2" d="M137.274,100.34l28.947-26.473V30.9L134.014,59.512Z" transform="translate(-3.077 -0.236)" fill="#46b8e6"/>
    </g>
  </g>
</svg>
