<svg xmlns="http://www.w3.org/2000/svg" width="170.479" height="159.062" viewBox="0 0 170.479 159.062">
  <g id="Groupe_7" data-name="Groupe 7" transform="translate(-84.904 -27.14)">
    <path id="Tracé_8" data-name="Tracé 8" d="M108.24,56.667,84.9,43.447l18.528,88.184L192.209,169.2" transform="translate(0 16.999)" fill="#46b8e6"/>
    <path id="Tracé_7" data-name="Tracé 7" d="M119.11,54.373,95.875,34.743l1.3,30.758,2.61,61.933,81.059,50.811" transform="translate(11.436 7.925)" fill="#fff"/>
    <path id="Tracé_6" data-name="Tracé 6" d="M135.655,50.717,114.422,29.986l-3.307,28.248-7.309,62.44,68.8,62.552" transform="translate(19.704 2.966)" fill="#46b8e6"/>
    <path id="Tracé_4" data-name="Tracé 4" d="M156.342,51.742l-17.481-24.6-29.37,83.39,57.16,75.6" transform="translate(25.631 0)" fill="#fff"/>
    <path id="Tracé_5" data-name="Tracé 5" d="M169.285,55.873l-9.508-28.6-42.515,76.963,41.222,81.654Z" transform="translate(33.731 0.138)" fill="#46b8e6"/>
    <path id="Tracé_3" data-name="Tracé 3" d="M188.08,59.4l-5.748-31.356L124.642,98.317l26.216,86.872" transform="translate(41.424 0.937)" fill="#fff"/>
    <path id="Tracé_2" data-name="Tracé 2" d="M141.117,182.2l63.072-57.68V30.9L134.014,93.241Z" transform="translate(51.194 3.915)" fill="#46b8e6"/>
  </g>
</svg>
